<svg xmlns="http://www.w3.org/2000/svg" xml:space="preserve" viewBox="0 0 450 94.897"><g fill="#FFF"><g fill-rule="evenodd" clip-rule="evenodd"><path d="M181.773 71.679c-16.549 12.213-40.543 18.709-61.203 18.709-28.957 0-55.031-10.703-74.765-28.521-1.549-1.398-.167-3.311 1.695-2.227 21.289 12.389 47.615 19.85 74.808 19.85 18.343 0 38.507-3.807 57.06-11.676 2.799-1.188 5.144 1.843 2.405 3.865z"/><path d="M188.661 63.817c-2.117-2.711-13.993-1.285-19.328-.646-1.615.193-1.866-1.217-.409-2.24 9.473-6.654 24.995-4.732 26.799-2.506 1.818 2.248-.476 17.811-9.354 25.238-1.365 1.143-2.664.533-2.059-.977 1.996-4.988 6.469-16.158 4.351-18.869z"/></g><path fill-rule="evenodd" d="M169.709 13.926V7.46c.004-.984.745-1.64 1.639-1.638l28.978-.003c.927 0 1.67.675 1.672 1.633l-.002 5.545c-.007.93-.79 2.144-2.182 4.07l-15.01 21.431c5.572-.131 11.466.703 16.528 3.549 1.142.641 1.447 1.592 1.537 2.524v6.898c0 .951-1.04 2.051-2.133 1.479-8.92-4.672-20.756-5.183-30.618.057-1.008.537-2.063-.547-2.063-1.498v-6.558c0-1.049.02-2.844 1.078-4.444l17.391-24.949-15.142-.003c-.924 0-1.667-.659-1.673-1.627zM64.005 54.308H55.19c-.839-.055-1.51-.686-1.577-1.49l.006-45.247c0-.905.762-1.629 1.701-1.629l8.21-.002c.859.044 1.549.694 1.604 1.52v5.907h.165c2.14-5.713 6.172-8.379 11.603-8.379 5.514 0 8.97 2.666 11.439 8.379 2.139-5.713 6.994-8.379 12.179-8.379 3.703 0 7.735 1.523 10.204 4.951 2.798 3.809 2.223 9.331 2.223 14.187l-.007 28.553c0 .904-.762 1.629-1.7 1.629h-8.806c-.885-.057-1.583-.758-1.583-1.625l-.002-23.987c0-1.904.165-6.665-.247-8.475-.658-3.046-2.633-3.903-5.184-3.903-2.14 0-4.362 1.428-5.268 3.713s-.822 6.093-.822 8.665v23.983c0 .904-.762 1.629-1.7 1.629h-8.806c-.885-.057-1.583-.758-1.583-1.625l-.009-23.987c0-5.046.823-12.473-5.431-12.473-6.337 0-6.09 7.236-6.09 12.473l-.004 23.983c.002.904-.76 1.629-1.7 1.629zM226.943 4.987c13.085 0 20.161 11.235 20.161 25.517 0 13.806-7.816 24.756-20.161 24.756-12.838 0-19.833-11.236-19.833-25.232 0-14.091 7.077-25.041 19.833-25.041zm.082 9.236c-6.502 0-6.913 8.854-6.913 14.377s-.082 17.329 6.831 17.329c6.831 0 7.159-9.521 7.159-15.329 0-3.809-.164-8.379-1.316-11.997-.989-3.142-2.964-4.38-5.761-4.38zM264.073 54.308h-8.783c-.883-.057-1.582-.758-1.582-1.625l-.014-45.264c.074-.827.805-1.477 1.693-1.477l8.178-.002c.77.04 1.404.565 1.566 1.268v6.921h.166c2.469-6.189 5.924-9.141 12.014-9.141 3.949 0 7.818 1.428 10.287 5.332 2.305 3.618 2.305 9.712 2.305 14.092v28.471c-.1.803-.818 1.426-1.689 1.426h-8.838c-.816-.053-1.475-.652-1.57-1.426V28.315c0-4.951.576-12.188-5.514-12.188-2.141 0-4.115 1.428-5.102 3.618-1.234 2.761-1.4 5.522-1.4 8.569v24.364c-.016.905-.778 1.63-1.717 1.63z" clip-rule="evenodd"/><ellipse cx="299.767" cy="50.718" fill-rule="evenodd" clip-rule="evenodd" rx="4.339" ry="4.123"/><path d="M388.831 54.319c-.914-.027-1.645-.74-1.645-1.627V7.44c.063-.798.736-1.434 1.578-1.488L392 5.951c.891 0 1.621.651 1.693 1.49v6.598c2.301-5.229 6.588-9.325 12.008-9.325l.34.005.326-.005c5.748 0 9.955 4.242 11.518 10.403 2.436-6.083 7.025-10.403 13.078-10.403l.314.005.354-.005c4.277 0 8.393 2.761 10.533 6.951 2.057 3.999 1.975 9.331 1.975 13.806l-.002 27.224c.002.867-.697 1.568-1.582 1.625h-3.873c-.834-.025-1.518-.623-1.629-1.404V25.471c0-3.237.164-6.665-1.152-9.617-1.346-3.021-3.908-4.898-6.664-5.038-3.078.153-5.902 2.387-7.729 5.418-2.387 3.904-2.303 7.427-2.303 11.997V52.93c-.109.75-.762 1.336-1.568 1.389h-3.854c-.914-.027-1.646-.74-1.646-1.627l-.018-29.031c0-2.666-.164-5.808-1.398-8.188-1.422-2.739-3.977-4.515-6.652-4.656-2.775.155-5.584 2.277-7.248 4.752-2.139 3.142-2.551 7.045-2.551 11.044l-.002 26.081c0 .867-.699 1.568-1.582 1.625h-3.855zM362.264 55.272c-12.508 0-18.104-12.759-18.104-25.517 0-13.425 6.584-25.041 19.174-25.041l.324.003.342-.003c12.262 0 18.352 12.377 18.352 25.136 0 13.521-6.748 25.422-19.422 25.422l-.324-.004-.342.004zm.922-6.195c4.115-.135 7.361-2.683 9.283-6.944 1.727-3.809 2.057-8.188 2.057-12.377 0-4.57-.494-9.331-2.633-13.235-1.916-3.415-5.221-5.577-8.721-5.707-3.896.143-7.369 2.776-9.129 6.849-1.563 3.523-2.057 8.188-2.057 12.092 0 4.379.576 9.426 2.387 13.234 1.758 3.609 5.151 5.959 8.813 6.088zM323.176 48.888c5.615-.176 8.563-4.676 9.787-10.51.238-.727.797-1.287 1.615-1.287l3.715-.016c.875.046 1.68.716 1.613 1.533-1.715 9.923-7.705 16.665-16.242 16.665l-.344-.004-.322.004c-12.426 0-17.775-12.473-17.775-25.136 0-12.568 5.432-25.422 17.857-25.422l.328.003.338-.003c8.623 0 14.777 6.645 16.113 16.574 0 .745-.691 1.39-1.502 1.484l-3.893-.045c-.809-.116-1.344-.818-1.465-1.599-.938-5.543-4.121-9.95-9.426-10.125-8.449.27-10.854 10.668-10.854 18.656.002 7.71 2.008 18.948 10.457 19.228z"/><path fill-rule="evenodd" d="M146.609 32.7c0 3.436.082 6.298-1.649 9.352-1.402 2.481-3.629 4.008-6.104 4.008-3.381 0-5.36-2.577-5.36-6.394 0-7.508 6.735-8.874 13.113-8.874V32.7zm8.888 21.494c-.584.523-1.425.559-2.083.205-2.928-2.434-3.452-3.559-5.053-5.875-4.84 4.93-8.268 6.408-14.535 6.408-7.422 0-13.195-4.58-13.195-13.74 0-7.157 3.876-12.023 9.401-14.409 4.783-2.1 11.464-2.481 16.577-3.054v-1.145c0-2.099.165-4.581-1.072-6.393-1.072-1.623-3.134-2.291-4.948-2.291-3.362 0-6.352 1.723-7.086 5.294-.152.794-.732 1.58-1.531 1.621l-8.545-.925c-.722-.163-1.523-.741-1.315-1.843C124.075 7.682 133.436 4.55 141.826 4.55c4.288 0 9.896 1.145 13.277 4.39 4.289 4.008 3.876 9.352 3.876 15.172v13.735c0 4.131 1.717 5.944 3.328 8.17.563.802.689 1.756-.029 2.341-1.801 1.51-5 4.289-6.761 5.855l-.02-.019zM31.04 32.7c0 3.436.083 6.298-1.649 9.352-1.401 2.481-3.628 4.008-6.103 4.008-3.381 0-5.36-2.577-5.36-6.394 0-7.508 6.735-8.874 13.112-8.874V32.7zm8.888 21.494c-.584.523-1.426.559-2.083.205-2.929-2.434-3.453-3.559-5.054-5.875-4.839 4.93-8.267 6.408-14.534 6.408-7.423 0-13.195-4.58-13.195-13.74 0-7.157 3.876-12.023 9.401-14.409 4.783-2.1 11.464-2.481 16.576-3.054v-1.145c0-2.099.165-4.581-1.071-6.393-1.072-1.623-3.135-2.291-4.948-2.291-3.362 0-6.353 1.723-7.086 5.294-.153.794-.732 1.58-1.532 1.621l-8.544-.925c-.722-.163-1.524-.741-1.315-1.843C8.505 7.682 17.867 4.55 26.256 4.55c4.289 0 9.896 1.145 13.278 4.39 4.288 4.008 3.876 9.352 3.876 15.172v13.735c0 4.131 1.716 5.944 3.327 8.17.563.802.689 1.756-.028 2.341a385.482 385.482 0 0 0-6.761 5.855l-.02-.019z" clip-rule="evenodd"/></g></svg>